<?xml version="1.0" encoding="utf-8"?>
<svg version="1.1" id="Layer_1" x="0px" y="0px"
	 viewBox="0 0 512 512" style="enable-background:new 0 0 512 512;" xml:space="preserve">
<g id="XMLID_1_">
	<path id="XMLID_3_" d="M383.5,135.9h8.4C391.9,60.5,331.4,0,256,0S120.1,60.5,120.1,135.9v240.2c0,75.4,60.5,135.9,135.9,135.9
		s135.9-60.5,135.9-135.9V135.9H383.5h-8.4v240.2c0,33.5-13,63.3-35.4,84.7c-21.4,21.4-52.1,35.4-84.7,35.4
		c-33.5,0-63.3-13-84.7-35.4c-21.4-21.4-35.4-52.1-35.4-84.7V135.9c0-33.5,13-63.3,35.4-84.7c21.4-21.4,52.1-35.4,84.7-35.4
		c33.5,0,63.3,13,84.7,35.4c21.4,21.4,35.4,52.1,35.4,84.7H383.5z"/>
	<polyline id="XMLID_4_" points="246.7,80.1 246.7,144.3 263.4,144.3 263.4,80.1 	"/>
</g>
</svg>
